<svg width = "100" height = "100">
    <path
        d = "
            M 0 75
            C  0 100,  20 100,  20 75
            C 20 100,  40 100,  40 75
            C 40 100,  60 100,  60 75
            C 60 100,  80 100,  80 75
            C 80 100, 100 100, 100 75
        "
        stroke = "#000000"
        stroke-width = "5"
        fill = "none"
    />
    <path
        d = "
            M -5 55
            C -10 80,  10 80,  10 55
            C  10 80,  30 80,  30 55
            C  30 80,  50 80,  50 55
            C  50 80,  70 80,  70 55
            C  70 80,  90 80,  90 55
            C  90 80, 110 80, 110 55
        "
        stroke = "#000000"
        stroke-width = "5"
        fill = "none"
    />
    <path
        d = "
            M 0 35
            C  0 60,  20 60,  20 35
            C 20 60,  40 60,  40 35
            C 40 60,  60 60,  60 35
            C 60 60,  80 60,  80 35
            C 80 60, 100 60, 100 35
        "
        stroke = "#000000"
        stroke-width = "5"
        fill = "none"
    />
    <path
        d = "
            M -5 15
            C -10 40,  10 40,  10 15
            C  10 40,  30 40,  30 15
            C  30 40,  50 40,  50 15
            C  50 40,  70 40,  70 15
            C  70 40,  90 40,  90 15
            C  90 40, 110 40, 110 15
        "
        stroke = "#000000"
        stroke-width = "5"
        fill = "none"
    />
    <path
        d = "
            M 0 -5
            C  0 20,  20 20,  20 -5
            C 20 20,  40 20,  40 -5
            C 40 20,  60 20,  60 -5
            C 60 20,  80 20,  80 -5
            C 80 20, 100 20, 100 -5
        "
        stroke = "#000000"
        stroke-width = "5"
        fill = "none"
    />
</svg>